# xmcd CD database file
# Copyright (C) 1996 Ti Kan
#
# Track frame offsets:
# 	212
# 	18090
# 	36607
# 	57005
# 	81285
# 	98580
# 	120082
# 	137362
# 	155445
# 	169995
# 	185010
# 	203295
#
# Disc length: 2982 seconds
#
# Revision: 1
# Processed by: cddbd v1.4b41PL1 Copyright (c) Steve Scherf et al.
# Submitted via: DiscPlay 3.4
#
DISCID=8b0ba40c
DTITLE=Chris Lizotte - Free
DYEAR=1900
DGENRE=
TTITLE0=All That I Need Is You
TTITLE1=Cuts Inside
TTITLE2=I Pledge My All
TTITLE3=You Won't Cry Anymore
TTITLE4=Separation
TTITLE5=Precious Lord
TTITLE6=Thick And Thin
TTITLE7=Someone To Believe In
TTITLE8=In My Quiet Place
TTITLE9=Amy's song
TTITLE10=Till I'm gone
TTITLE11=The Lord's Prayer
EXTD=
EXTT0=
EXTT1=
EXTT2=
EXTT3=
EXTT4=
EXTT5=
EXTT6=
EXTT7=
EXTT8=
EXTT9=
EXTT10=
EXTT11=
PLAYORDER=
